<?xml version="1.0" standalone="no"?>
<!DOCTYPE svg PUBLIC "-//W3C//DTD SVG 20010904//EN"
 "http://www.w3.org/TR/2001/REC-SVG-20010904/DTD/svg10.dtd">
<svg version="1.0" xmlns="http://www.w3.org/2000/svg"
 width="300.000000pt" height="213.000000pt" viewBox="0 0 300.000000 213.000000"
 preserveAspectRatio="xMidYMid meet">
<metadata>
Created by potrace 1.10, written by Peter Selinger 2001-2011
</metadata>
<g transform="translate(0.000000,213.000000) scale(0.100000,-0.100000)"
fill="#000000" stroke="none">
<path d="M1558 2112 c-15 -10 -66 -61 -113 -113 -83 -91 -128 -130 -190 -167
-16 -9 -53 -41 -80 -69 -28 -29 -58 -53 -68 -53 -16 0 -47 54 -70 122 -4 10
-22 24 -41 32 -21 9 -50 35 -71 64 -53 75 -95 81 -158 23 -23 -21 -51 -43 -63
-49 -11 -6 -44 -50 -73 -99 -30 -48 -63 -98 -74 -110 -18 -21 -19 -31 -14
-120 37 -585 555 -1012 1117 -919 109 18 162 36 285 96 287 142 492 441 530
776 6 56 4 66 -23 115 -16 30 -33 68 -37 84 -9 39 -33 65 -61 65 -12 0 -41 16
-64 35 -23 19 -48 35 -56 35 -17 0 -41 -25 -87 -89 -18 -25 -37 -46 -43 -48
-15 -5 -121 93 -140 129 -24 47 -51 68 -87 68 -38 0 -73 32 -100 93 -12 27
-23 37 -40 37 -13 0 -42 16 -65 36 -59 50 -73 38 -20 -18 28 -30 48 -63 55
-91 8 -30 22 -52 42 -66 30 -22 77 -88 68 -97 -4 -5 -36 26 -62 61 -12 16 -14
17 -15 4 0 -16 95 -119 110 -119 4 0 19 -10 34 -21 44 -35 42 -13 -3 27 -22
21 -54 61 -71 90 -16 29 -39 58 -49 64 -11 6 -23 26 -27 45 -3 19 -10 38 -15
41 -15 9 -10 24 6 17 9 -3 23 -20 32 -37 23 -46 64 -86 88 -86 25 0 49 -24 60
-60 9 -28 45 -83 51 -77 2 2 -3 20 -11 40 -8 21 -11 37 -6 37 5 0 14 -14 21
-30 14 -35 89 -100 114 -100 9 0 16 -3 16 -6 0 -10 -70 -96 -99 -122 -21 -19
-22 -21 -5 -13 12 6 36 27 54 47 17 20 53 54 79 74 25 20 57 53 71 73 29 43
46 46 62 12 10 -23 8 -30 -28 -68 -23 -25 -27 -31 -8 -14 16 15 34 27 40 27 5
0 8 -20 6 -45 -4 -44 -2 -47 68 -121 78 -83 88 -116 12 -41 -26 26 -51 47 -56
47 -13 0 15 -30 67 -72 78 -61 85 -30 11 52 -19 20 -34 42 -34 48 0 6 -6 9
-14 6 -19 -7 -33 41 -42 140 l-7 80 31 -25 c17 -13 31 -29 31 -36 1 -7 7 -25
14 -40 l12 -27 6 39 5 40 13 -30 c7 -16 14 -50 14 -75 1 -26 6 -43 12 -40 6 2
9 11 7 20 -1 8 4 4 12 -10 9 -14 15 -48 16 -75 0 -62 -39 -219 -74 -299 -14
-32 -26 -66 -26 -74 0 -23 -17 -2 -23 28 -4 22 -4 21 -6 -6 -2 -51 -32 -124
-57 -141 -22 -14 -36 -41 -14 -28 26 16 5 -17 -46 -73 -176 -195 -414 -297
-689 -295 -196 1 -358 48 -517 153 -69 45 -228 199 -228 221 0 5 35 -28 78
-72 93 -98 171 -155 276 -203 105 -48 161 -64 286 -82 274 -39 562 61 765 266
57 58 67 72 56 82 -8 7 -11 8 -8 2 8 -13 -76 -102 -151 -161 -39 -32 -166
-103 -192 -108 -3 -1 -21 -8 -40 -17 -69 -30 -139 -43 -160 -30 -27 17 -39 15
-86 -10 -27 -14 -47 -19 -60 -14 -10 5 -48 7 -84 7 -74 -2 -195 22 -254 50
-22 11 -46 19 -53 19 -10 0 -13 9 -10 29 4 20 0 31 -10 35 -25 10 -27 7 -9
-13 15 -17 15 -19 1 -25 -9 -3 -13 -2 -10 4 3 5 -1 7 -9 4 -8 -3 -24 4 -35 15
-12 12 -21 18 -21 15 0 -4 -6 -1 -13 5 -8 6 -17 8 -20 4 -4 -3 -9 2 -13 11 -3
9 -12 16 -19 16 -11 0 -45 41 -45 54 0 9 82 -19 83 -29 1 -5 15 -23 31 -39 35
-35 59 -26 64 23 2 23 8 31 20 29 13 -2 18 -17 22 -63 4 -44 9 -60 20 -60 11
0 16 13 18 48 2 26 6 45 11 43 12 -8 34 11 27 23 -5 8 -13 8 -27 1 -15 -8 -19
-21 -19 -60 0 -81 -19 -57 -22 28 l-3 77 -37 3 c-38 3 -54 21 -20 23 14 0 14
2 -3 8 -13 5 -20 18 -21 37 -3 43 -3 44 -19 44 -8 0 -15 -8 -15 -17 0 -15 2
-16 10 -3 5 8 10 13 11 10 5 -27 4 -50 -2 -50 -5 0 -6 -7 -2 -16 7 -20 -17
-37 -34 -23 -6 6 -21 8 -31 5 -11 -4 -31 -2 -45 3 -15 6 -29 7 -31 2 -5 -8 -4
-8 54 -14 44 -5 76 -21 106 -56 44 -49 21 -58 -32 -12 -35 31 -96 54 -120 44
-7 -3 -17 2 -20 11 -3 9 -10 14 -14 11 -11 -7 -141 140 -173 195 -69 119 -114
271 -124 417 l-6 81 39 60 c22 33 51 80 65 104 32 54 132 133 156 124 15 -6
12 -10 -15 -28 -38 -24 -38 -24 -12 -24 11 0 20 6 20 13 0 18 17 16 24 -3 3
-9 6 -31 6 -50 0 -38 15 -74 31 -74 6 0 6 6 0 18 -5 9 -9 49 -9 87 -1 58 1 67
11 51 7 -10 22 -31 35 -46 12 -15 22 -40 22 -54 0 -32 63 -104 107 -123 32
-13 52 -50 39 -72 -4 -5 -2 -12 4 -16 6 -4 10 6 10 24 0 17 5 31 10 31 6 0 33
22 60 49 27 27 76 67 107 88 32 20 110 91 174 157 117 120 139 133 139 77 0
-15 6 -36 14 -46 13 -18 13 -14 9 30 -5 41 -26 105 -36 105 -1 0 -14 -8 -29
-18z m-529 -338 c30 -56 19 -61 -25 -12 -26 28 -43 98 -19 78 8 -7 28 -36 44
-66z m635 -1063 c3 -5 -9 -11 -27 -14 -37 -5 -48 0 -27 13 19 12 47 13 54 1z"/>
<path d="M1571 2002 c-1 -14 -5 -21 -12 -16 -8 4 -7 0 1 -15 7 -13 9 -39 5
-65 -7 -43 -5 -46 54 -118 37 -45 61 -84 61 -99 0 -13 6 -31 13 -40 17 -21
127 -79 127 -67 0 24 -50 115 -78 142 -27 25 -61 29 -46 5 3 -5 9 -7 13 -4 10
6 42 -29 70 -79 26 -46 20 -58 -14 -26 -14 13 -25 20 -25 15 0 -5 -11 2 -25
15 -14 13 -25 33 -25 45 0 12 -18 47 -40 78 -38 53 -49 83 -69 202 -5 28 -9
40 -10 27z"/>
<path d="M1660 1984 c11 -46 25 -60 16 -15 -3 18 -6 37 -6 42 0 5 -4 9 -9 9
-5 0 -5 -15 -1 -36z"/>
<path d="M1520 1971 c0 -6 -17 -30 -39 -54 -21 -25 -41 -57 -45 -72 -4 -15
-11 -23 -18 -19 -7 5 -8 3 -2 -7 15 -24 34 -83 34 -107 0 -13 4 -21 9 -18 21
14 29 -71 9 -93 -11 -11 -10 -13 2 -9 23 7 32 79 13 100 -14 16 -13 23 11 78
27 63 36 134 15 113 -7 -7 -12 -20 -13 -30 -3 -31 -27 -93 -37 -93 -9 0 -13
17 -9 35 2 6 2 25 1 43 -2 31 9 46 63 90 15 12 23 52 11 52 -3 0 -5 -4 -5 -9z"/>
<path d="M1850 1879 c0 -9 40 -89 45 -89 8 0 -18 65 -31 80 -8 8 -14 12 -14 9z"/>
<path d="M781 1852 c0 -12 6 -34 15 -47 9 -14 14 -34 11 -45 -4 -15 4 -31 26
-53 18 -18 39 -43 48 -57 9 -14 19 -23 22 -20 4 3 -12 30 -35 60 -25 33 -42
68 -46 92 -2 22 -10 38 -18 38 -7 0 -15 12 -17 28 -3 22 -4 23 -6 4z"/>
<path d="M1730 1822 c0 -23 38 -107 45 -100 3 2 -7 31 -20 64 -15 37 -25 50
-25 36z"/>
<path d="M1374 1782 c-7 -5 -6 -15 3 -32 7 -14 13 -20 14 -15 0 6 7 -3 14 -20
8 -16 14 -23 14 -15 1 27 -34 90 -45 82z"/>
<path d="M949 1755 c-3 -15 5 -25 29 -38 19 -10 36 -16 39 -13 3 2 -9 12 -25
20 -17 9 -32 24 -34 33 -4 16 -5 16 -9 -2z"/>
<path d="M1345 1709 c5 -40 15 -51 15 -16 0 15 0 30 1 34 0 4 -4 9 -10 11 -6
2 -8 -10 -6 -29z"/>
<path d="M767 1723 c-11 -18 69 -98 128 -129 30 -16 55 -34 55 -41 0 -15 39
-43 60 -43 10 1 7 5 -8 13 -12 7 -29 23 -38 35 -8 12 -32 29 -52 38 -41 16
-120 88 -131 118 -5 12 -10 15 -14 9z"/>
<path d="M1577 1710 c-23 -18 -52 -95 -41 -111 2 -4 8 -33 13 -66 5 -32 17
-80 27 -106 21 -60 10 -75 -33 -50 -30 17 -32 17 -54 -4 -60 -54 -96 -81 -124
-91 -28 -10 -28 -10 -5 -11 19 -1 21 -4 12 -13 -7 -7 -12 -16 -12 -21 0 -5 35
23 79 62 43 39 83 71 88 71 5 0 33 -25 63 -55 44 -44 58 -53 78 -48 20 5 23 2
20 -15 -2 -14 11 -36 37 -63 22 -23 34 -39 28 -35 -7 4 -13 2 -13 -3 0 -6 -28
16 -62 50 -35 34 -84 78 -109 100 l-46 38 -113 -95 c-109 -92 -156 -118 -93
-51 27 28 30 35 21 57 l-11 25 -6 -24 c-10 -39 -29 -36 -37 6 -4 21 -16 46
-27 56 -24 21 -22 21 -52 1 -15 -10 -34 -14 -49 -10 -26 6 -42 -8 -63 -53 -8
-19 -12 -21 -12 -8 -1 10 -6 15 -11 12 -6 -4 -10 -28 -9 -55 1 -27 -3 -56 -10
-64 -10 -12 -10 -20 1 -42 15 -32 61 -54 56 -27 -2 9 -12 17 -22 19 -19 3 -36
20 -36 38 0 5 17 6 38 3 l37 -6 -27 24 c-21 18 -24 26 -15 34 8 6 18 6 27 1
27 -17 36 -10 13 9 -13 11 -23 25 -23 31 0 9 3 10 14 1 11 -9 13 -6 11 14 -8
72 30 81 41 9 8 -53 24 -59 24 -8 0 21 4 33 10 29 6 -3 10 0 10 7 0 23 16 39
32 33 12 -5 15 -18 13 -50 -2 -24 -7 -50 -11 -57 -6 -10 -3 -9 9 1 12 10 17
10 17 1 0 -6 -10 -20 -22 -30 l-23 -19 24 6 c22 6 23 5 10 -18 -11 -21 -11
-23 3 -11 10 8 19 9 22 3 3 -5 -8 -21 -26 -36 l-33 -26 28 7 c17 4 27 2 27 -5
0 -6 -12 -14 -27 -17 -16 -4 -36 -13 -47 -20 -15 -11 -12 -12 25 -7 25 4 61
19 83 35 22 16 46 26 54 23 9 -3 12 0 9 9 -3 7 0 19 6 26 7 7 -1 4 -18 -8 -16
-11 -40 -23 -52 -27 -18 -5 -20 -3 -16 15 6 22 62 70 81 70 6 0 9 -6 6 -14 -3
-8 -1 -17 5 -21 6 -3 11 -17 11 -31 0 -13 5 -24 11 -24 6 0 9 7 5 15 -3 9 0
15 9 15 8 0 15 7 15 15 0 8 -7 15 -15 15 -24 0 -18 11 31 65 25 28 53 60 61
73 l15 22 60 -56 c33 -30 73 -65 89 -76 24 -18 29 -29 29 -63 0 -41 11 -59 50
-80 12 -7 13 -6 3 6 -11 13 -8 15 19 11 l31 -5 -21 31 c-24 32 -30 54 -10 34
22 -22 32 -12 10 11 -27 29 -28 41 -2 27 16 -9 19 -8 13 6 -5 12 -3 15 6 9 10
-6 11 -2 6 16 -6 20 -5 22 6 12 7 -7 17 -13 22 -13 5 0 -5 14 -23 30 -18 17
-30 33 -26 37 3 3 15 -2 26 -12 11 -10 20 -13 20 -7 0 6 -4 14 -10 17 -5 3
-15 16 -21 28 -9 18 -9 20 2 10 22 -22 30 -14 13 12 -22 34 -10 44 17 14 18
-21 20 -21 14 -4 -16 45 -18 58 -8 52 6 -4 9 4 7 18 -1 14 1 25 6 25 4 0 10 9
13 21 7 27 33 19 29 -9 -2 -12 2 -22 8 -22 7 0 9 -7 6 -15 -21 -52 -21 -51 1
-32 11 9 22 17 25 17 6 0 -13 -58 -25 -77 -14 -21 11 -14 26 7 8 11 16 17 19
14 8 -7 -17 -55 -34 -65 -7 -4 -10 -11 -6 -14 3 -4 19 2 34 12 l28 18 -8 -25
c-4 -14 -8 -33 -7 -42 0 -12 -8 -18 -25 -18 -13 0 -24 -4 -24 -9 0 -5 9 -7 20
-4 24 6 26 -4 3 -29 -18 -20 -5 -25 16 -5 11 10 13 10 7 0 -4 -7 -2 -13 3 -13
25 0 9 -21 -20 -27 -25 -5 -28 -8 -15 -15 9 -5 21 -6 26 -3 17 11 11 -10 -10
-33 -12 -12 -28 -22 -38 -23 -11 0 -6 -5 12 -14 29 -12 29 -13 8 -24 -12 -7
-29 -11 -38 -9 -13 3 -16 -11 -17 -84 -1 -47 1 -84 6 -81 4 2 7 33 7 69 0 48
3 64 14 64 7 0 22 12 32 28 18 27 20 31 23 53 0 5 5 8 10 5 19 -12 38 5 33 29
-2 14 -7 23 -11 21 -3 -2 -5 13 -3 35 2 21 8 39 14 39 5 0 7 8 3 18 -3 11 -7
38 -10 61 -2 23 -9 48 -14 55 -6 7 -8 15 -6 18 3 3 -4 31 -16 62 -21 57 -57
106 -78 106 -22 0 -10 24 34 67 25 24 42 43 38 43 -17 0 -63 -49 -103 -109
-28 -41 -59 -74 -91 -94 -62 -38 -64 -48 -3 -12 25 15 48 24 51 21 3 -3 0 -25
-6 -48 -12 -44 -16 -90 -9 -120 1 -9 -1 -18 -7 -20 -5 -2 -12 8 -14 22 -3 23
-4 23 -11 5 -6 -16 -11 -13 -34 28 -15 26 -32 47 -37 47 -5 0 -4 10 2 22 l12
22 -28 -18 c-27 -18 -27 -18 -60 16 -29 29 -39 58 -14 43 17 -11 9 40 -13 75
-13 21 -23 55 -24 85 -2 28 -6 64 -9 81 -7 33 18 99 34 89 5 -2 14 2 20 9 19
23 -4 28 -32 6z"/>
<path d="M930 1652 c0 -5 11 -19 25 -32 29 -27 33 -15 6 18 -20 23 -31 28 -31
14z"/>
<path d="M2179 1628 c-3 -21 -1 -36 5 -35 6 1 16 -14 22 -33 11 -31 13 -32 13
-9 1 14 -4 30 -10 36 -6 6 -14 26 -18 45 l-8 33 -4 -37z"/>
<path d="M1625 1605 c4 -24 19 -52 36 -70 l30 -30 -32 65 c-40 82 -42 84 -34
35z"/>
<path d="M1338 1580 c-3 -8 1 -28 9 -43 8 -15 11 -33 7 -39 -5 -7 -3 -8 5 -4
7 5 9 15 5 25 -3 9 -10 30 -13 46 -5 20 -9 25 -13 15z"/>
<path d="M1710 1582 c0 -9 70 -62 83 -62 4 0 7 5 7 10 0 6 -6 10 -14 10 -8 0
-28 12 -45 26 -17 14 -31 21 -31 16z"/>
<path d="M1490 1555 c-6 -41 -3 -88 6 -96 9 -7 10 4 7 38 -5 51 -10 75 -13 58z"/>
<path d="M692 1521 c12 -15 28 -37 34 -47 7 -11 14 -17 17 -14 7 7 -55 89 -66
90 -5 0 2 -13 15 -29z"/>
<path d="M2170 1526 c0 -5 8 -18 17 -28 15 -17 15 -21 0 -53 -17 -35 -14 -100
4 -89 11 7 35 -44 25 -53 -4 -4 -11 -1 -16 7 -6 8 -10 10 -10 4 0 -15 25 -36
33 -27 13 12 7 45 -13 70 -11 14 -20 35 -20 47 0 29 27 65 37 50 22 -31 75
-85 79 -81 3 3 -15 28 -40 56 -25 29 -46 62 -47 74 0 20 -1 20 -8 3 -7 -18 -8
-18 -24 5 -9 13 -17 19 -17 15z"/>
<path d="M1250 1433 c15 -33 26 -43 43 -42 l22 2 -22 4 c-13 2 -23 10 -23 16
0 7 -10 23 -21 37 -20 25 -20 24 1 -17z"/>
<path d="M1863 1180 c0 -47 2 -66 4 -42 2 23 2 61 0 85 -2 23 -4 4 -4 -43z"/>
<path d="M1510 1241 c0 -5 -3 -16 -6 -25 -5 -12 0 -16 19 -16 23 0 43 30 29
44 -9 10 -42 7 -42 -3z"/>
<path d="M1504 1118 c3 -13 6 -26 6 -30 0 -19 38 -6 43 14 8 29 1 38 -30 38
-21 0 -24 -3 -19 -22z"/>
<path d="M1600 1123 c0 -10 5 -25 10 -33 8 -13 10 -12 10 3 0 9 4 17 10 17 5
0 7 -7 4 -15 -4 -8 -1 -15 5 -15 6 0 11 14 11 30 0 25 -4 30 -25 30 -17 0 -25
-5 -25 -17z"/>
<path d="M1150 1054 c0 -47 -4 -73 -10 -69 -15 9 -12 -11 4 -24 11 -9 14 4 15
79 1 49 -1 90 -4 90 -3 0 -5 -34 -5 -76z"/>
<path d="M1860 1049 l0 -41 -42 5 c-71 9 -82 0 -79 -67 l3 -58 -90 4 c-50 1
-94 0 -98 -4 -10 -11 -58 -10 -69 1 -12 12 -67 2 -59 -10 7 -12 295 -8 315 4
10 6 14 18 11 30 -3 14 -1 18 6 13 7 -4 12 -2 12 3 0 6 -4 11 -10 11 -14 0
-13 47 1 56 9 5 10 -1 5 -21 -6 -25 -5 -27 8 -16 9 8 16 20 16 29 0 13 3 12
20 -3 11 -10 17 -21 14 -26 -5 -8 35 -34 42 -26 2 2 -5 16 -17 31 l-21 27 25
-6 c15 -4 28 -2 33 6 5 9 2 10 -10 6 -13 -5 -17 -3 -13 7 14 36 19 86 8 86 -6
0 -11 -18 -11 -41z"/>
<path d="M1320 1044 l-34 -24 223 0 224 0 -29 23 c-27 21 -39 22 -189 23 -153
1 -162 1 -195 -22z"/>
<path d="M1240 1005 c0 -9 -7 -18 -15 -21 -8 -4 -13 -10 -10 -15 3 -4 13 -5
23 -2 15 6 15 4 4 -10 -8 -8 -25 -17 -39 -19 -15 -2 -28 -10 -30 -18 -3 -11
-2 -12 4 -3 10 14 56 6 47 -8 -3 -5 2 -9 12 -9 12 0 15 -7 12 -30 -4 -26 -1
-30 19 -30 13 0 23 -4 23 -10 0 -5 -10 -10 -22 -10 -21 0 -21 -1 5 -15 30 -15
94 -17 103 -3 3 4 -3 5 -12 1 -12 -5 -15 -3 -9 6 4 7 18 11 31 8 13 -2 21 0
17 5 -3 6 -17 8 -32 5 -14 -2 -37 -1 -51 3 -16 5 9 8 68 9 50 1 92 -3 92 -8 0
-4 -10 -7 -22 -6 -13 1 -15 0 -5 -2 32 -8 17 -23 -22 -23 -22 0 -42 -3 -45 -8
-8 -13 78 -1 89 12 14 18 64 27 175 32 167 8 122 12 -137 13 -242 1 -253 2
-253 20 0 11 4 21 9 23 16 6 17 108 0 119 -20 13 -29 11 -29 -6z"/>
<path d="M1440 1000 c-80 -3 -125 -7 -100 -9 25 -1 39 -5 33 -8 -7 -2 -13 -20
-13 -39 0 -29 3 -34 24 -34 18 0 26 7 29 23 l4 22 2 -22 c2 -40 21 -25 21 17
l0 40 143 1 c78 0 138 2 132 4 -22 8 -137 10 -275 5z"/>
<path d="M1330 940 c0 -16 4 -30 9 -30 5 0 9 14 9 30 -1 17 -5 30 -10 30 -4 0
-8 -13 -8 -30z"/>
<path d="M1503 943 c3 -39 42 -45 49 -9 6 31 2 36 -28 36 -19 0 -22 -5 -21
-27z"/>
<path d="M1620 940 c0 -16 5 -30 10 -30 6 0 10 9 10 20 0 11 4 20 9 20 5 0 7
-9 4 -20 -4 -14 0 -20 11 -20 11 0 16 9 16 30 0 27 -3 30 -30 30 -27 0 -30 -3
-30 -30z"/>
<path d="M1832 914 c10 -12 18 -41 21 -74 l3 -55 2 60 c2 53 -1 62 -20 74 -22
13 -22 13 -6 -5z"/>
<path d="M10 252 c0 -15 6 -17 35 -14 l35 4 0 -102 c0 -89 2 -101 17 -98 14 3
17 18 17 98 l1 95 38 -1 c30 -1 37 2 37 17 0 17 -9 19 -90 19 -80 0 -90 -2
-90 -18z"/>
<path d="M260 155 c0 -96 3 -115 15 -115 11 0 15 12 15 50 l0 50 59 0 59 0 -1
-47 c-2 -38 2 -48 16 -51 15 -3 17 7 17 112 0 111 -1 116 -21 116 -18 0 -20
-5 -17 -47 l3 -48 -57 -3 -58 -3 0 51 c0 38 -4 50 -15 50 -12 0 -15 -19 -15
-115z"/>
<path d="M530 158 l0 -113 75 0 c66 0 75 2 75 18 0 16 -8 18 -57 16 l-57 -3 0
34 -1 34 53 -3 c47 -2 53 0 50 15 -2 13 -14 17 -52 18 -49 1 -50 2 -50 31 0
30 1 30 57 30 48 0 57 2 57 17 0 16 -10 18 -75 18 l-75 0 0 -112z"/>
<path d="M843 258 c4 -7 25 -59 49 -115 23 -57 48 -103 55 -103 7 0 22 23 35
52 l22 52 23 -53 c14 -30 28 -51 36 -48 16 5 107 221 95 225 -22 9 -36 -12
-64 -92 -16 -47 -32 -86 -35 -86 -4 0 -12 19 -18 43 -10 35 -9 48 3 79 20 46
20 58 2 58 -8 0 -21 -19 -29 -42 l-14 -43 -13 43 c-9 29 -19 42 -31 42 -17 0
-17 -3 2 -47 18 -42 19 -53 8 -90 -10 -39 -29 -59 -29 -33 0 6 -14 47 -31 90
-24 64 -35 80 -51 80 -12 0 -18 -5 -15 -12z"/>
<path d="M1230 155 c0 -108 1 -115 20 -115 19 0 20 7 20 115 0 108 -1 115 -20
115 -19 0 -20 -7 -20 -115z"/>
<path d="M1360 158 l0 -113 75 0 c41 1 75 4 75 8 0 4 0 12 0 17 0 6 -27 10
-61 10 l-60 0 2 93 c2 78 -1 92 -15 95 -14 3 -16 -10 -16 -110z"/>
<path d="M1580 156 l0 -113 53 4 c83 7 96 12 117 46 25 41 25 83 0 125 -24 39
-54 52 -121 52 l-49 0 0 -114z m124 63 c20 -16 26 -29 26 -59 0 -50 -25 -78
-73 -82 l-39 -3 1 78 c0 42 0 79 1 82 1 14 61 2 84 -16z"/>
<path d="M2014 260 c-85 -34 -83 -171 3 -206 92 -39 176 63 128 156 -28 53
-77 72 -131 50z m81 -43 c53 -45 26 -139 -40 -140 -67 0 -95 94 -41 139 34 30
48 30 81 1z"/>
<path d="M2252 162 c-23 -60 -42 -112 -42 -115 0 -4 7 -7 16 -7 8 0 21 15 29
34 13 30 18 33 55 33 37 0 42 -3 55 -33 8 -19 21 -34 29 -34 9 0 16 3 16 7 0
4 -19 56 -42 115 -30 74 -48 108 -59 108 -11 0 -29 -33 -57 -108z m76 19 c16
-52 16 -51 -22 -51 l-34 0 17 45 c9 25 19 45 22 45 3 0 11 -17 17 -39z"/>
<path d="M2505 258 c-27 -15 -35 -28 -35 -60 0 -20 8 -31 30 -43 16 -8 35 -15
42 -15 23 0 57 -30 52 -44 -8 -22 -44 -26 -82 -10 -22 9 -39 11 -45 5 -15 -15
1 -30 45 -41 69 -19 118 6 118 59 0 35 -12 46 -66 60 -23 6 -48 18 -55 27 -11
14 -10 18 6 31 19 14 32 13 83 -2 17 -6 22 -3 22 9 0 31 -76 46 -115 24z"/>
<path d="M2710 154 c0 -103 2 -115 17 -112 9 2 16 6 15 11 -1 4 -2 54 -2 112
0 87 -3 105 -15 105 -12 0 -15 -20 -15 -116z"/>
<path d="M2852 253 c-50 -43 -32 -88 44 -113 36 -11 50 -21 52 -36 4 -29 -29
-37 -79 -20 -37 13 -49 12 -49 -6 0 -12 64 -38 93 -38 34 0 77 37 77 65 0 33
-24 53 -77 66 -50 13 -64 33 -40 57 14 13 22 14 53 4 55 -17 77 4 29 26 -37
17 -80 15 -103 -5z"/>
</g>
</svg>
